# xmcd
#
# Track frame offsets: 
#        150
#        18394
#        35404
#        51637
#        68758
#        87623
#        104162
#        122015
#        138623
#        157384
#        175272
#        193710
#
# Disc length: 2790 seconds
#
# Revision: 2
# Processed by: cddbd v1.5.2PL0 Copyright (c) Steve Scherf et al.
# Submitted via: ExactAudioCopy v0.99pb4
#
DISCID=ba0ae40c
DTITLE=Dorgival Dantas - O Homem Do Coração
DYEAR=2005
DGENRE=
TTITLE0=Por Quê
TTITLE1=Me Dá Um Beijo
TTITLE2=Eu Não Vou Mais Chorar
TTITLE3=Coração
TTITLE4=Minha Princesa
TTITLE5=Eu Te Amo
TTITLE6=Louco Por Você
TTITLE7=Outra Pessoa
TTITLE8=Tá Na Kara
TTITLE9=Chama
TTITLE10=Pra Te Amar
TTITLE11=Volta
EXTD=
EXTT0=
EXTT1=
EXTT2=
EXTT3=
EXTT4=
EXTT5=
EXTT6=
EXTT7=
EXTT8=
EXTT9=
EXTT10=
EXTT11=
PLAYORDER=
